<svg width="640" height="640" xmlns="http://www.w3.org/2000/svg" xmlns:xlink="http://www.w3.org/1999/xlink" preserveAspectRatio="xMidYMid meet">
 <defs>
  <path id="b1G5ril5DC" d="m433.08,200c5.52,0 10,4.48 10,10c0,46.1 0,174.37 0,220.46c0,5.53 -4.48,10 -10,10c-46.62,0 -176.46,0 -223.08,0c-5.52,0 -10,-4.47 -10,-10c0,-46.09 0,-174.36 0,-220.46c0,-5.52 4.48,-10 10,-10c46.62,0 176.46,0 223.08,0z"/>
  <path id="d1mHQA7siI" d="m463.08,170c5.53,0 10,4.48 10,10c0,46.1 0,174.37 0,220.47c0,5.52 -4.47,10 -10,10c-46.61,0 -176.46,0 -223.08,0c-5.52,0 -10,-4.48 -10,-10c0,-46.1 0,-174.37 0,-220.47c0,-5.52 4.48,-10 10,-10c46.62,0 176.47,0 223.08,0z"/>
  <path id="a3bpqJj811" d="m493.09,140c5.52,0 10,4.48 10,10c0,46.09 0,174.37 0,220.46c0,5.53 -4.48,10 -10,10c-46.62,0 -176.47,0 -223.09,0c-5.52,0 -10,-4.47 -10,-10c0,-46.09 0,-174.37 0,-220.46c0,-5.52 4.48,-10 10,-10c46.62,0 176.47,0 223.09,0z"/>
  <path id="g4peug2db" d="m456.88,209.79l-0.04,0.61l-0.06,0.59l-0.09,0.59l-0.1,0.59l-0.13,0.57l-0.15,0.57l-0.18,0.55l-0.19,0.55l-0.22,0.54l-0.23,0.52l-0.25,0.52l-0.28,0.5l-0.29,0.49l-0.31,0.48l-0.33,0.47l-0.34,0.45l-0.37,0.44l-0.38,0.43l-0.39,0.41l-0.41,0.39l-0.42,0.38l-0.44,0.36l-0.46,0.35l-0.46,0.33l-0.48,0.31l-0.49,0.29l-0.51,0.27l-0.51,0.26l-0.53,0.23l-0.54,0.22l-0.54,0.19l-0.56,0.17l-0.56,0.15l-0.58,0.13l-0.58,0.11l-0.59,0.09l-0.6,0.06l-0.6,0.03l-0.61,0.02l-28.67,0l0,128.35l-35.44,0l-1.02,-0.02l-1.01,-0.06l-1,-0.1l-0.99,-0.14l-0.98,-0.18l-0.96,-0.22l-0.95,-0.25l-0.93,-0.29l-0.92,-0.33l-0.89,-0.36l-0.89,-0.39l-0.86,-0.43l-0.84,-0.46l-0.83,-0.49l-0.8,-0.52l-0.78,-0.55l-0.76,-0.58l-0.73,-0.6l-0.72,-0.64l-0.68,-0.66l-0.66,-0.68l-0.64,-0.72l-0.6,-0.73l-0.58,-0.76l-0.55,-0.78l-0.52,-0.8l-0.49,-0.83l-0.46,-0.84l-0.43,-0.86l-0.39,-0.89l-0.36,-0.89l-0.33,-0.92l-0.29,-0.93l-0.25,-0.95l-0.22,-0.96l-0.18,-0.98l-0.14,-0.99l-0.1,-1l-0.06,-1.01l-0.02,-1.02l0,-103.54l-49.25,0l0,-48.2l152.98,0l0,33.38l-0.01,0.61z"/>
 </defs>
 <g>
  <title>background</title>
  <rect fill="none" id="canvas_background" height="402" width="582" y="-1" x="-1"/>
 </g>
 <g>
  <title>Layer 1</title>
  <g stroke="null" id="svg_1">
   <g stroke="null" id="svg_2">
    <g stroke="null" id="svg_3">
     <g stroke="null" id="svg_4">
      <filter stroke="null" transform="translate(7,9) translate(-197,-137) translate(3,3) scale(2.0293972492218018) translate(-3,-3) " primitiveUnits="userSpaceOnUse" filterUnits="userSpaceOnUse" height="259.46" width="262.08" y="191" x="191" id="shadow14780500">
       <feGaussianBlur stroke="null" stdDeviation="1"/>
      </filter>
      <path stroke="null" filter="url(#shadow14780500)" fill="white" id="d6LchJ6LGx" d="m483.011911,133.763835c11.202273,0 20.293972,9.0917 20.293972,20.293972c0,93.555213 0,353.865998 0,447.400918c0,11.222567 -9.0917,20.293972 -20.293972,20.293972c-94.6105,0 -358.107439,0 -452.717938,0c-11.202273,0 -20.293972,-9.071406 -20.293972,-20.293972c0,-93.534919 0,-353.845704 0,-447.400918c0,-11.202273 9.0917,-20.293972 20.293972,-20.293972c94.6105,0 358.107439,0 452.717938,0z"/>
     </g>
     <use transform="matrix(2.0293972492218018,0,0,2.0293972492218018,-3.0881917476654053,-3.0881917476654053) " stroke="null" x="-193.5507" y="-132.565186" id="svg_5" fill="#002f48" xlink:href="#b1G5ril5DC"/>
    </g>
    <g stroke="null" id="svg_6">
     <g stroke="null" id="svg_7">
      <filter stroke="null" transform="translate(7,9) translate(-197,-137) translate(3,3) scale(2.0293972492218018) translate(-3,-3) " primitiveUnits="userSpaceOnUse" filterUnits="userSpaceOnUse" height="259.46" width="262.08" y="161" x="221" id="shadow7997109">
       <feGaussianBlur stroke="null" stdDeviation="1"/>
      </filter>
      <path stroke="null" filter="url(#shadow7997109)" fill="white" id="gt4VnBDeS" d="m543.893828,72.881917c11.222567,0 20.293972,9.0917 20.293972,20.293972c0,93.555213 0,353.865998 0,447.421212c0,11.202273 -9.071406,20.293972 -20.293972,20.293972c-94.590206,0 -358.107439,0 -452.717938,0c-11.202273,0 -20.293972,-9.0917 -20.293972,-20.293972c0,-93.555213 0,-353.865998 0,-447.421212c0,-11.202273 9.0917,-20.293972 20.293972,-20.293972c94.6105,0 358.127733,0 452.717938,0z"/>
     </g>
     <use transform="matrix(2.0293972492218018,0,0,2.0293972492218018,-3.0881917476654053,-3.0881917476654053) " stroke="null" x="-193.5507" y="-132.565186" id="svg_8" fill="#006298" xlink:href="#d1mHQA7siI"/>
    </g>
    <g stroke="null" id="svg_9">
     <g stroke="null" id="svg_10">
      <filter stroke="null" transform="translate(7,9) translate(-197,-137) translate(3,3) scale(2.0293972492218018) translate(-3,-3) " primitiveUnits="userSpaceOnUse" filterUnits="userSpaceOnUse" height="259.46" width="262.08" y="131" x="251" id="shadow12812695">
       <feGaussianBlur stroke="null" stdDeviation="1"/>
      </filter>
      <path stroke="null" filter="url(#shadow12812695)" fill="white" id="a6FYXjfta" d="m604.79604,12c11.202273,0 20.293972,9.0917 20.293972,20.293972c0,93.534919 0,353.865998 0,447.400918c0,11.222567 -9.0917,20.293972 -20.293972,20.293972c-94.6105,0 -358.127733,0 -452.738232,0c-11.202273,0 -20.293972,-9.071406 -20.293972,-20.293972c0,-93.534919 0,-353.865998 0,-447.400918c0,-11.202273 9.0917,-20.293972 20.293972,-20.293972c94.6105,0 358.127733,0 452.738232,0z"/>
     </g>
     <use transform="matrix(2.0293972492218018,0,0,2.0293972492218018,-3.0881917476654053,-3.0881917476654053) " stroke="null" x="-193.5507" y="-132.565186" id="svg_11" fill="#0082ca" xlink:href="#a3bpqJj811"/>
    </g>
    <g stroke="null" id="svg_12">
     <use transform="matrix(2.0293972492218018,0,0,2.0293972492218018,-3.0881917476654053,-3.0881917476654053) " stroke="null" x="-193.5507" y="-132.565186" id="svg_13" fill="#ffffff" xlink:href="#g4peug2db"/>
    </g>
   </g>
  </g>
 </g>
</svg>